<?xml version="1.0" encoding="UTF-8" standalone="no"?>
<!-- Created with Inkscape (http://www.inkscape.org/) -->

<svg
   width="48"
   height="48"
   viewBox="0 0 12.7 12.7"
   version="1.1"
   id="svg500"
   sodipodi:docname="leadfree.svg"
   inkscape:version="1.2.2 (b0a8486541, 2022-12-01)"
   xmlns:inkscape="http://www.inkscape.org/namespaces/inkscape"
   xmlns:sodipodi="http://sodipodi.sourceforge.net/DTD/sodipodi-0.dtd"
   xmlns="http://www.w3.org/2000/svg"
   xmlns:svg="http://www.w3.org/2000/svg">
  <sodipodi:namedview
     id="namedview502"
     pagecolor="#505050"
     bordercolor="#ffffff"
     borderopacity="1"
     inkscape:showpageshadow="0"
     inkscape:pageopacity="0"
     inkscape:pagecheckerboard="1"
     inkscape:deskcolor="#505050"
     inkscape:document-units="px"
     showgrid="false"
     inkscape:zoom="18.370858"
     inkscape:cx="44.499826"
     inkscape:cy="41.206567"
     inkscape:window-width="2256"
     inkscape:window-height="1424"
     inkscape:window-x="0"
     inkscape:window-y="48"
     inkscape:window-maximized="1"
     inkscape:current-layer="g2447" />
  <defs
     id="defs497" />
  <g
     inkscape:label="Layer 1"
     inkscape:groupmode="layer"
     id="layer1">
    <g
       id="g2447"
       transform="matrix(13.33333,0,0,13.33333,-21.131824,-10.941069)">
      <g
         id="g888"
         transform="matrix(0.19846127,0,0,0.19846127,1.269634,0.6575095)">
        <path
           id="text1843"
           style="font-size:2.7234px;line-height:1.25;font-family:Arimo;-inkscape-font-specification:Arimo;letter-spacing:0px;word-spacing:0px;stroke-width:0.264583"
           d="m 4.271468,2.2205728 v 0.9590889 l 0.3704813,0.3704814 c -0.00126,-0.022251 -0.00213,-0.045004 -0.00213,-0.068911 0,-0.159574 0.02614,-0.2814945 0.078445,-0.3657142 0.053191,-0.085106 0.1303177,-0.1276666 0.2313813,-0.1276666 0.1001771,0 0.1742073,0.039464 0.2220795,0.1183649 0.047872,0.0789 0.071817,0.1999197 0.071817,0.3630399 0,0.1657797 -0.024846,0.2898951 -0.074492,0.3723417 -0.031709,0.053617 -0.074161,0.089656 -0.1272404,0.1084043 l 0.2371174,0.2371173 c 0.084461,-0.031764 0.1547422,-0.086091 0.2106073,-0.1633621 0.095745,-0.1320919 0.1436347,-0.3169131 0.1436347,-0.5545012 0,-0.235815 -0.045657,-0.4180101 -0.1369684,-0.5465559 -0.090425,-0.1294323 -0.2207716,-0.1941355 -0.390984,-0.1941355 -0.1108153,0 -0.2047546,0.023044 -0.281882,0.069143 -0.077128,0.046099 -0.1365397,0.1152309 -0.1782063,0.2074292 h -0.00531 l 0.00264,-0.1170083 c 0.00177,-0.039007 0.00267,-0.078001 0.00267,-0.1170084 V 2.2205728 Z m -1.8244627,0.099761 v 1.8736458 h 0.392263 v -0.659572 h 0.4654368 c 0.1409571,0 0.2624076,-0.02614 0.3643577,-0.078445 0.049277,-0.02571 0.092932,-0.056205 0.1312323,-0.091235 L 3.5436828,3.1081157 c -0.010923,0.016329 -0.023644,0.031218 -0.038176,0.044648 -0.058511,0.053191 -0.1418678,0.079801 -0.2500235,0.079801 H 2.8392683 V 2.6248505 H 3.0603789 L 2.7558625,2.3203341 Z m 0.9716463,0.00651 0.569229,0.5692289 C 3.9842276,2.7156929 3.9237147,2.5755505 3.8060312,2.4759061 3.7099083,2.3932121 3.5807027,2.343611 3.4186516,2.3268454 Z M 4.271468,3.8359009 v 0.029611 c 0,0.068262 -9.012e-4,0.1299081 -0.00267,0.1848725 -0.00177,0.054078 -0.00444,0.1019293 -0.00798,0.1435959 h 0.36304 c 3.652e-4,-0.0011 6.906e-4,-0.00337 0.00105,-0.00465 z" />
        <path
           id="path1947"
           style="color:#000000;fill:#000000;-inkscape-stroke:none"
           d="m 3.9843924,0.82030908 c -1.3237042,0 -2.4003966,1.07669242 -2.4003966,2.40039662 0,1.3237044 1.0766924,2.4003967 2.4003966,2.4003967 1.3237043,0 2.4003579,-1.0766923 2.4003579,-2.4003967 0,-1.3237042 -1.0766536,-2.40039662 -2.4003579,-2.40039662 z m 0,0.30079562 c 1.1615727,10e-8 2.099601,0.9380285 2.099601,2.099601 0,0.5324703 -0.197124,1.0179687 -0.5225263,1.3876676 L 2.5967249,1.6435923 C 2.9664212,1.318201 3.4519322,1.1211048 3.9843924,1.1211047 Z M 2.4091394,1.830984 5.3741141,4.7959588 C 5.0041568,5.1224551 4.517863,5.3203067 3.9843924,5.3203067 c -1.1615726,0 -2.0996397,-0.9380283 -2.0996397,-2.099601 0,-0.5334645 0.1978969,-1.0197659 0.5243867,-1.3897217 z" />
      </g>
    </g>
  </g>
</svg>
