<?xml version="1.0" encoding="UTF-8" standalone="no"?>
<!-- Created with Inkscape (http://www.inkscape.org/) -->

<svg
   width="48"
   height="64"
   viewBox="0 0 12.7 16.933333"
   version="1.1"
   id="svg909"
   xml:space="preserve"
   inkscape:version="1.2.2 (b0a8486541, 2022-12-01)"
   sodipodi:docname="weee.svg"
   xmlns:inkscape="http://www.inkscape.org/namespaces/inkscape"
   xmlns:sodipodi="http://sodipodi.sourceforge.net/DTD/sodipodi-0.dtd"
   xmlns="http://www.w3.org/2000/svg"
   xmlns:svg="http://www.w3.org/2000/svg"><sodipodi:namedview
     id="namedview911"
     pagecolor="#505050"
     bordercolor="#ffffff"
     borderopacity="1"
     inkscape:showpageshadow="0"
     inkscape:pageopacity="0"
     inkscape:pagecheckerboard="1"
     inkscape:deskcolor="#505050"
     inkscape:document-units="px"
     showgrid="false"
     inkscape:zoom="17.831297"
     inkscape:cx="25.376729"
     inkscape:cy="40.434523"
     inkscape:window-width="2256"
     inkscape:window-height="1424"
     inkscape:window-x="0"
     inkscape:window-y="48"
     inkscape:window-maximized="1"
     inkscape:current-layer="layer1" /><defs
     id="defs906" /><g
     inkscape:label="Layer 1"
     inkscape:groupmode="layer"
     id="layer1"><path
       id="path3338"
       sodipodi:nodetypes="ccccccccccccccssssscscccccccccccccccccccccccccsssscccccsssscccccscccccccccccccccccscccccccccccccsssccssscccccccc"
       style="fill:#000000;stroke-width:0.0321886"
       inkscape:connector-curvature="0"
       d="M 0.5149397,11.972162 4.1364809,8.3367816 3.751183,4.0560184 0.37491973,0.47503571 0.37453662,0.05043597 3.7237613,3.5525557 3.6564248,2.5290875 3.1709235,2.5293429 3.1492842,2.1680903 3.5761366,2.167969 C 3.6753721,1.9148731 3.8938579,1.677961 4.1212191,1.5654955 4.2680571,1.4874013 4.2448879,1.4278981 4.2448879,1.2850419 l 0.405512,0.00184 c 0.300867,-0.017451 0.6104894,-0.043864 0.8964202,-0.07209 0.1772863,-0.017161 0.2063196,-0.027635 0.2063196,-0.074431 0,-0.052566 0.02887,-0.054196 0.8323963,-0.04691 0.8268616,0.0075 0.8323337,0.00794 0.8242233,0.067232 -0.00751,0.054819 0.016469,0.063734 0.2938561,0.1092499 0.5185904,0.085101 0.9100359,0.2424174 1.1558923,0.4645465 l 0.1111795,0.1004449 0.063135,-0.059141 C 9.2486431,1.5745599 9.6018862,1.636796 9.7418104,1.9005206 9.9037059,2.2541123 9.5607454,2.5875538 9.2495817,2.5572001 L 9.1112091,2.540812 9.0748137,3.0503585 h 0.2839579 l 2.9661804,-3.0591448 5.11e-4,0.42688562 -2.5585756,2.69624728 -0.00115,1.1313644 -0.794512,0.00374 C 8.8742063,5.6458264 8.6700092,7.3404606 8.5847049,8.6808582 L 11.673074,11.917422 11.454877,12.130486 9.3445595,9.9364138 9.324325,10.114861 c -0.047278,0.399105 -0.2878273,0.6214 -0.6115468,0.78186 -0.5240318,0.169486 -0.9385558,-0.04327 -1.2732526,-0.389964 H 5.0701878 v 0.485661 L 4.42989,10.976325 C 4.42734,10.822634 4.482548,10.560802 4.37828,10.477402 4.317205,10.429362 4.30635,10.392022 4.289802,10.173013 4.2521389,9.6394558 4.2032248,9.1916154 4.1737689,8.7281633 L 0.74504009,12.156895 Z M 8.545675,10.464126 C 8.7546891,10.372184 8.8348585,10.251765 8.8379387,10.025139 8.8459201,9.4373734 8.0140397,9.3101965 7.8289866,9.8708932 7.7023575,10.254582 8.1603031,10.633635 8.5456648,10.46413 Z M 8.1438013,10.264576 C 7.931352,10.11716 7.9802278,9.8270042 8.1724004,9.7235814 c 0.1510765,-0.078125 0.3424867,-0.031942 0.4390532,0.105936 0.076305,0.1506819 0.035462,0.3205286 -0.052343,0.4093116 -0.1231798,0.123179 -0.2708377,0.132329 -0.4152966,0.02574 z M 7.3336457,9.9952351 C 7.3504221,9.7326407 7.4239739,9.5529625 7.588698,9.3721606 7.7298648,9.217207 8.0124945,9.0550025 8.1413124,9.0550025 c 0.068343,0 0.076467,-0.012861 0.098845,-0.1565205 C 8.2575655,8.7867355 8.2536246,8.7802214 8.0249928,8.5427666 L 6.2119051,6.6785951 4.4680234,8.4146869 4.6017795,10.168065 7.3218779,10.179073 Z M 8.633679,4.2405556 c 0,0 -2.1832886,2.1494907 -2.1832886,2.1971622 l 1.829246,1.9216596 z M 6.0067029,6.4496274 4.1265021,4.4306288 4.4284725,8.0306022 Z M 7.5006404,4.8907657 5.7246976,4.9287522 V 4.2456765 H 7.8021191 V 4.6006526 L 8.6274024,3.7768507 V 3.0504504 c 0.097013,0.00576 0.1419495,-0.022428 0.1424923,-0.092489 L 8.8050679,2.495508 6.3902142,2.5045622 C 5.062048,2.5095426 3.9676664,2.5213181 3.9676664,2.5213181 L 4.0773748,3.9468553 6.211158,6.2092635 Z m 1.9805,-1.5402898 -0.5366157,0.5820026 0.5366157,1.213e-4 z M 4.2366511,1.8837378 c -0.054602,0 -0.3193686,0.244112 -0.3193686,0.2888132 0.1127553,5.74e-5 0.2004669,-0.00424 0.3278085,-0.00424 z M 8.760437,2.1300782 C 8.7943089,2.0962063 8.5986258,1.9199531 8.4235514,1.8266316 8.2461668,1.7320879 7.663933,1.5706752 7.5002548,1.5706752 c -0.095479,0 -0.096567,0.00144 -0.096567,0.1280593 V 1.8267938 L 5.7531205,1.8642312 V 1.7053099 c 0,-0.1285842 -0.0095,-0.1608266 -0.049802,-0.1689 -0.051727,-0.010369 -0.5632367,0.049126 -0.7435252,0.086465 L 4.8566862,1.6442321 4.8402279,2.1754728 Z M 7.1048492,1.3857165 6.056465,1.3902755 6.0565876,1.538941 7.1048428,1.5280096 Z" /><rect
       style="fill:#000000;fill-opacity:1;stroke-width:0.0201538"
       id="rect1050"
       width="9.7651911"
       height="2.4345725"
       x="1.4674044"
       y="14.522956" /></g></svg>
